<?xml version="1.0" encoding="UTF-8" standalone="no"?>
<!-- Created with Inkscape (http://www.inkscape.org/) -->

<svg
   version="1.1"
   id="svg2"
   width="2560"
   height="1440"
   viewBox="0 0 2560 1440"
   xmlns="http://www.w3.org/2000/svg"
   xmlns:svg="http://www.w3.org/2000/svg">
  <defs
     id="defs6">
    <clipPath
       clipPathUnits="userSpaceOnUse"
       id="clipPath16">
      <path
         d="M 0,1080 H 1920 V 0 H 0 Z"
         id="path14" />
    </clipPath>
  </defs>
  <g
     id="g8"
     transform="matrix(1.3333333,0,0,-1.3333333,0,1440)">
    <g
       id="g10">
      <g
         id="g12"
         clip-path="url(#clipPath16)">
        <g
           id="g18"
           transform="translate(1340.2848,710.8963)">
          <path
             d="m 0,0 c -0.083,0.151 -0.17,0.307 -0.256,0.464 -0.08,-0.08 -0.238,-0.178 -0.225,-0.237 0.038,-0.169 0.145,-0.323 0.225,-0.483 0.08,0.08 0.16,0.16 0.256,0.256 m 232.394,243.571 c -0.78,-1.637 -1.874,-2.57 -3.019,-3.371 -19.6,-13.704 -40.881,-18.295 -64.11,-11.443 -6.332,1.868 -12.074,5.241 -17.956,8.203 -6.63,3.339 -13.089,7.039 -20.145,9.471 -4.68,1.613 -9.45,2.613 -14.442,2.47 -7.301,-0.211 -12.139,-3.857 -14.895,-10.472 -1.111,-2.664 -1.82,-5.451 -2.25,-8.304 -1.925,-12.787 0.029,-24.526 8.781,-34.681 6.352,-7.37 12.938,-14.5 19.866,-21.321 8.124,-7.998 16.487,-15.74 25.053,-23.262 1.895,-1.664 3.744,-3.367 5.15,-5.497 3.233,-4.897 2.23,-9.007 -3.102,-11.448 -5.482,-2.511 -11.356,-3.806 -17.306,-4.599 -10.238,-1.366 -20.559,-1.616 -30.866,-2 -5.039,-0.188 -10.079,-0.446 -14.945,-1.848 -13.755,-3.963 -21.525,-13.632 -25.372,-26.955 -0.667,-2.31 -1.035,-4.684 -1.229,-7.075 -0.289,-3.54 0.359,-4.298 3.862,-4.421 2.876,-0.1 5.759,-0.018 8.636,-0.109 39.478,-1.24 72.994,-15.456 99.115,-45.676 2.887,-3.341 6.273,-5.865 10.37,-7.51 2.335,-0.937 2.451,-2.017 0.461,-3.447 -1.67,-1.199 -3.599,-1.859 -5.533,-2.524 -1.835,-0.631 -2.081,-1.535 -0.594,-2.787 8.449,-7.115 15.848,-15.378 24.432,-22.336 2.813,-2.28 5.384,-4.775 7.629,-7.603 4.698,-5.919 9.34,-11.882 14.056,-17.785 4.747,-5.941 10.101,-11.238 16.654,-15.208 5.324,-3.227 11.034,-5.258 17.321,-5.257 24.443,0.008 44.395,-10.409 61.817,-26.645 3.772,-3.515 7.317,-7.274 10.99,-10.897 6.371,-6.283 13.742,-10.768 22.624,-12.527 0.458,-0.091 0.889,-0.331 1.32,-0.527 0.079,-0.037 0.1,-0.201 0.235,-0.5 -2.561,-0.52 -5.083,-0.95 -7.657,-0.956 -15.602,-0.035 -30.818,2.168 -45.405,7.932 -7.988,3.156 -15.216,7.583 -21.712,13.199 -3.721,3.217 -7.4,6.482 -11.141,9.674 -3.612,3.081 -7.736,5.229 -12.351,6.361 -1.271,0.311 -2.603,0.524 -3.905,0.512 -1.156,-0.01 -1.678,-0.828 -1.324,-1.999 0.137,-0.452 0.379,-0.878 0.612,-1.293 3.725,-6.624 7.965,-12.844 13.917,-17.719 0.185,-0.152 0.375,-0.3 0.554,-0.459 0.787,-0.699 2.092,-1.242 1.798,-2.462 -0.356,-1.475 -1.962,-1.184 -3.028,-1.3 -5.184,-0.562 -10.298,-0.13 -15.24,1.644 -9.326,3.346 -16.814,9.093 -22.364,17.311 -4.861,7.199 -8.519,14.999 -11.151,23.258 -1.093,3.426 -2.967,6.219 -5.49,8.705 -5.149,5.074 -11.464,8.186 -18.014,10.934 -1.374,0.576 -2.813,0.503 -4.246,0.581 -13.869,0.753 -27.532,-0.756 -41.062,-3.717 -2.954,-0.646 -5.719,-1.802 -8.229,-3.484 -3.983,-2.669 -7.911,-5.419 -11.88,-8.109 -1.041,-0.706 -1.94,-1.905 -3.578,-1.219 -0.445,2.035 0.531,3.987 0.501,6.006 -0.014,0.92 0.425,2.09 -0.683,2.559 -1.257,0.533 -1.575,-0.759 -2.053,-1.494 -1.834,-2.819 -3.734,-5.586 -5.968,-8.104 -6.112,-6.884 -13.367,-12.024 -22.435,-14.179 -8.587,-2.04 -16.89,-1.007 -24.881,2.735 -2.83,1.326 -5.597,2.776 -8.126,4.592 -1.786,1.283 -3.293,1.665 -5.111,0.11 -1.183,-1.011 -2.679,-1.587 -4.194,-1.998 -3.238,-0.88 -6.165,-0.214 -8.788,1.852 -2.415,1.901 -4.093,4.384 -5.354,7.128 -7.154,15.578 -18.838,26.997 -33.029,36.129 -1.048,0.674 -2.048,1.5 -3.547,1.691 -0.124,-1.753 1.112,-2.306 1.89,-3.053 4.081,-3.92 7.818,-8.122 10.905,-12.878 2.76,-4.252 5.032,-8.746 6.007,-13.751 0.876,-4.494 0.711,-8.849 -2.739,-12.46 -4.12,-4.313 -9.61,-4.551 -14.054,-0.555 -0.357,0.321 -0.687,0.671 -1.051,0.984 -1.95,1.68 -2.071,1.645 -2.946,-0.802 -1.248,-3.491 -3.465,-4.475 -6.685,-2.708 -4.854,2.663 -8.399,6.315 -10.469,11.757 -8.246,21.687 -23.706,34.586 -47.016,37.569 -3.837,0.491 -7.608,0.538 -11.456,-0.015 -11.832,-1.698 -18.919,-8.274 -21.969,-20.257 -3.447,-13.545 -0.536,-25.905 8.208,-36.815 5.242,-6.541 11.756,-11.651 18.944,-15.848 9.104,-5.316 18.376,-10.345 27.515,-15.602 8.645,-4.972 16.86,-10.583 24.313,-17.243 11.905,-10.638 19.809,-23.625 22.787,-39.413 1.069,-5.67 1.657,-11.407 0.706,-17.171 -0.485,-2.945 -0.982,-3.348 -3.783,-2.623 -6.838,1.77 -13.629,3.727 -20.467,5.498 -1.769,0.458 -2.66,1.446 -2.979,3.142 -1.926,10.262 -7.926,18.078 -15.124,25.171 -8.18,8.061 -17.65,14.377 -27.506,20.133 -8.691,5.076 -17.54,9.88 -26.235,14.95 -13.511,7.876 -23.328,19.035 -29.105,33.614 -3.553,8.965 -5.037,18.243 -3.355,27.843 1.096,6.26 3.884,11.799 7.705,16.837 7.953,10.482 18.587,16.72 31.24,19.802 9.165,2.233 18.464,2.831 27.85,2.443 8.63,-0.357 17.251,-0.829 25.642,-3.149 3.228,-0.893 6.504,-1.65 9.439,-3.378 0.507,-0.298 1.098,-0.482 1.673,-0.632 0.799,-0.208 1.706,-0.544 2.237,0.434 0.507,0.936 -0.131,1.467 -0.779,2.103 -7.45,7.306 -14.883,14.63 -22.264,22.006 -1.133,1.132 -3.188,2.087 -2.647,3.947 0.564,1.941 2.765,1.952 4.515,2.285 7.565,1.441 15.05,0.603 22.506,-0.814 C -4.622,28.89 8.402,24.923 20.527,18.362 30.841,12.781 40.015,5.717 47.791,-3.102 c 0.402,-0.456 0.766,-1.043 1.444,-0.796 0.944,0.345 0.666,1.216 0.433,1.814 -0.734,1.886 -1.471,3.786 -2.415,5.571 -8.31,15.703 -20.356,27.421 -36.845,34.357 -6.292,2.647 -12.601,5.253 -18.884,7.919 -4.092,1.736 -7.966,3.883 -11.636,6.398 -3.196,2.192 -5.989,4.792 -8.19,7.999 -2.033,2.962 -1.964,3.454 0.916,5.437 5.165,3.557 10.797,6.184 16.661,8.356 9.231,3.421 18.746,5.808 28.336,7.951 11.136,2.488 22.397,4.068 33.777,4.765 1.77,0.109 2.409,0.891 2.278,2.43 -0.223,2.625 -0.231,5.296 -0.977,7.843 -4.775,16.293 -12.504,26.132 -31.765,29.574 -5.806,1.038 -11.711,0.89 -17.578,1.118 -8.992,0.349 -17.969,0.824 -26.847,2.398 -4.259,0.756 -8.414,1.939 -12.363,3.702 -5.694,2.542 -6.82,6.755 -3.337,11.879 1.506,2.214 3.526,3.916 5.495,5.669 12.102,10.773 23.986,21.775 35.041,33.634 3.352,3.596 6.615,7.285 9.731,11.086 6.928,8.45 10.109,18.057 8.869,29.073 -0.552,4.899 -0.978,9.747 -3.135,14.302 -2.91,6.144 -7.66,9.282 -14.426,9.539 -5.124,0.194 -9.998,-0.932 -14.778,-2.601 -5.444,-1.901 -10.593,-4.46 -15.672,-7.162 -4.972,-2.645 -9.999,-5.169 -15.113,-7.535 -15.164,-7.012 -30.746,-7.55 -46.668,-3.201 -8.159,2.228 -15.763,5.687 -22.725,10.506 -1.747,1.209 -3.497,2.447 -5.006,4.572 1.921,0.477 3.275,-0.34 4.621,-0.774 7.717,-2.491 15.598,-3.67 23.718,-3.434 9.769,0.284 18.868,3.063 27.641,7.128 6.65,3.081 12.906,6.849 18.959,10.972 8.125,5.534 16.198,11.149 24.443,16.5 6.546,4.248 13.437,7.907 21.103,9.782 10.537,2.577 20.727,1.85 30.226,-3.74 7.894,-4.645 12.665,-11.402 13.862,-20.7 1.087,-8.44 2.45,-16.841 3.143,-25.333 0.677,-8.283 0.444,-16.552 -0.334,-24.8 -0.406,-4.297 -3.044,-7.488 -6.149,-10.25 -2.966,-2.639 -6.341,-4.727 -9.702,-6.814 -17.431,-10.826 -34.208,-22.601 -50.646,-34.868 -4.041,-3.015 -7.898,-6.257 -11.459,-9.837 -0.676,-0.679 -1.377,-1.348 -1.961,-2.103 -2.247,-2.903 -2.007,-5.075 0.884,-7.427 2.87,-2.335 6.385,-3.207 9.861,-4.12 7.122,-1.872 14.445,-2.252 21.737,-2.692 8.738,-0.528 17.49,-0.83 26.243,-1.099 7.402,-0.228 12.639,2.97 16.658,8.762 4.246,6.117 6.443,13.079 8.049,20.247 1.074,4.795 1.855,9.647 2.318,14.545 0.034,0.358 -0.016,0.75 0.112,1.069 0.413,1.03 -0.081,2.88 1.495,2.871 1.606,-0.009 1.238,-1.817 1.409,-2.889 1.002,-6.278 2.198,-12.509 4.143,-18.571 2.551,-7.953 6.036,-15.362 12.002,-21.443 2.395,-2.442 4.901,-3.721 8.459,-3.865 14.538,-0.588 29.011,0.002 43.458,1.583 4.426,0.484 8.728,1.544 12.903,3.072 1.682,0.616 3.346,1.346 4.753,2.504 2.699,2.222 3.014,4.776 0.783,7.506 -2.131,2.608 -4.691,4.801 -7.288,6.935 -9.738,8.002 -19.973,15.336 -30.38,22.429 -9.508,6.481 -18.959,13.05 -28.835,18.979 -3.077,1.848 -6.058,3.89 -8.581,6.503 -3.298,3.414 -4.971,7.4 -5.235,12.234 -0.848,15.548 0.721,30.909 3.144,46.216 2.163,13.668 10.98,22.799 24.666,25.579 8.815,1.791 17.413,0.893 25.742,-2.496 7.363,-2.997 14.152,-7.035 20.706,-11.489 7.436,-5.055 14.787,-10.238 22.302,-15.172 8.746,-5.742 17.964,-10.558 28.124,-13.373 12.229,-3.388 24.395,-3.145 36.522,0.494 1.72,0.516 3.439,1.036 5.164,1.531 0.214,0.061 0.47,-0.023 1.199,-0.076"
             style="fill:#ddc173;fill-opacity:1;fill-rule:nonzero;stroke:none"
             id="path20" />
        </g>
        <g
           id="g22"
           transform="translate(529.9006,598.2875)">
          <path
             d="m 0,0 c 0,-28.548 0.003,-57.096 -0.003,-85.644 -0.001,-3.721 0.085,-7.434 0.521,-11.135 0.998,-8.468 5.784,-13.242 14.235,-13.954 9.601,-0.807 19.19,-0.685 28.636,1.397 27.595,6.081 47.591,21.023 56.917,48.633 5.228,15.478 7.851,31.383 8.256,47.62 0.459,18.373 -0.793,36.667 -4.277,54.757 -2.418,12.553 -6.357,24.569 -12.897,35.625 -7.572,12.801 -18.046,22.347 -32.027,27.662 -12.767,4.854 -25.911,7.768 -39.722,6.705 -3.022,-0.233 -5.933,-0.768 -8.761,-1.793 C 4.89,107.702 1.696,103.235 0.574,97.127 0.009,94.046 -0.005,90.925 -0.004,87.804 0.004,58.536 0,29.268 0,0 m -20.217,9.698 c 0,-31.918 -0.002,-63.837 0.004,-95.755 0.001,-2.64 -0.022,-5.283 0.108,-7.918 0.1,-2.017 0.847,-2.63 2.629,-2.636 1.648,-0.005 2.408,0.847 2.472,2.422 0.039,0.959 0.075,1.918 0.075,2.877 0.015,65.877 0.025,131.754 0.046,197.631 0,2.396 -0.187,4.789 0.097,7.191 0.204,1.717 0.931,2.656 2.736,2.582 0.598,-0.024 1.199,0.006 1.799,0.006 19.435,-0.011 38.879,0.316 58.304,-0.132 18.058,-0.417 35.408,-4.467 51.452,-13.06 22.493,-12.048 36.385,-30.995 43.625,-55.155 3.287,-10.969 5.033,-22.218 5.572,-33.625 0.854,-18.035 0.046,-35.972 -4.077,-53.641 -1.801,-7.717 -4.167,-15.251 -7.488,-22.46 -11.585,-25.151 -31.144,-40.771 -57.588,-48.164 -14.199,-3.97 -28.749,-5.211 -43.403,-5.543 -8.034,-0.181 -16.074,-0.14 -24.112,-0.146 -21.475,-0.017 -42.95,-0.009 -64.425,0 -2.159,0.001 -4.318,0.061 -6.476,0.128 -1.295,0.04 -2.454,0.372 -2.452,1.979 0.001,1.565 1.145,1.927 2.42,2.099 1.9,0.257 3.796,0.543 5.697,0.795 1.905,0.252 3.775,0.635 5.588,1.294 8.616,3.133 13.497,9.26 14.493,18.357 0.325,2.971 0.306,5.989 0.307,8.985 0.016,55.318 0.022,110.635 -0.009,165.953 -0.003,4.303 0.147,8.616 -0.976,12.873 -1.583,6.006 -5.183,10.153 -10.839,12.579 -3.108,1.334 -6.355,2.128 -9.732,2.367 -1.077,0.076 -2.159,0.09 -3.234,0.185 -2.455,0.217 -3.388,0.847 -3.341,2.41 0.066,2.182 1.835,1.897 3.183,1.903 11.396,0.051 22.794,0.073 34.191,0.034 2.881,-0.01 3.184,-0.408 3.294,-3.46 0.074,-2.038 0.044,-4.08 0.044,-6.119 0.002,-32.279 0.001,-64.557 0.001,-96.836 z"
             style="fill:#ddc173;fill-opacity:1;fill-rule:nonzero;stroke:none"
             id="path24" />
        </g>
        <g
           id="g26"
           transform="translate(1578.5723,229.7992)">
          <path
             d="m 0,0 c -10.248,-2.78 -20.445,-5.131 -30.947,-1.255 -1.232,0.455 -2.483,0.921 -3.766,1.16 -1.264,0.234 -1.789,-0.466 -1.366,-1.711 0.19,-0.56 0.449,-1.109 0.756,-1.616 5.286,-8.725 8.444,-18.21 10.246,-28.211 0.572,-3.175 1.365,-6.318 2.667,-9.307 0.92,-2.113 2.127,-4.019 3.696,-5.702 0.478,-0.512 1.216,-0.997 0.896,-1.796 -0.42,-1.045 -1.427,-0.572 -2.199,-0.579 -0.715,-0.008 -1.446,0.057 -2.144,0.207 -8.355,1.798 -16.426,4.397 -23.912,8.609 -17.71,9.963 -27.49,25.53 -31.542,45.025 -1.097,5.274 -1.665,10.659 -1.383,16.09 0.046,0.879 0.422,2.092 -0.754,2.511 -1.187,0.422 -1.645,-0.731 -2.162,-1.48 -4.347,-6.304 -7.177,-13.27 -8.668,-20.75 -1.537,-7.712 -1.88,-15.462 -0.097,-23.209 0.238,-1.035 0.521,-2.114 -0.033,-3.23 -1.603,-0.352 -2.303,1.013 -3.165,1.86 -6.971,6.842 -11.065,15.249 -13.248,24.675 -2.359,10.184 -0.991,19.984 2.936,29.551 2.728,6.645 6.053,13.05 8.12,19.959 1.34,4.478 2.611,8.984 2.636,13.719 0.005,0.958 -0.051,1.918 -0.099,2.876 -0.042,0.849 -0.101,1.756 -1.124,1.995 -0.859,0.2 -1.232,-0.563 -1.688,-1.097 -1.09,-1.275 -2.074,-2.66 -3.284,-3.808 -4.023,-3.815 -8.821,-5.199 -14.255,-4.083 -3.409,0.699 -3.821,1.695 -1.77,4.489 4.634,6.311 7.654,13.296 8.713,21.036 1.545,11.294 -0.549,21.95 -6.143,31.899 -0.292,0.519 -0.647,1.006 -0.99,1.495 -0.438,0.624 -0.987,1.083 -1.798,0.754 -0.715,-0.289 -0.549,-1.002 -0.563,-1.557 -0.083,-3.248 -0.489,-6.454 -1.159,-9.629 -0.149,-0.704 -0.259,-1.43 -0.524,-2.091 -0.701,-1.747 -0.898,-4.385 -2.781,-4.712 -1.913,-0.332 -2.293,2.346 -3.176,3.763 -3.418,5.483 -7.535,10.235 -13.238,13.425 -1.211,0.678 -2.574,1.872 -3.955,1.002 -1.267,-0.798 -0.522,-2.426 -0.547,-3.685 -0.033,-1.678 0.092,-3.358 0.136,-5.037 0.042,-1.61 -0.805,-2.144 -2.288,-1.812 -0.7,0.157 -1.405,0.338 -2.066,0.609 -15.245,6.254 -25.803,16.816 -29.754,33.127 -1.435,5.923 -2.201,12.014 -3.168,18.044 -0.432,2.698 1.297,5.297 3.941,6.116 1.013,0.314 2.131,0.519 3.179,0.45 7.747,-0.51 14.37,2.364 20.27,6.981 4.305,3.37 9.304,5.453 14.06,7.874 8.311,4.231 18.381,-2.12 18.68,-11.34 0.068,-2.112 0.611,-3.998 1.583,-5.823 1.418,-2.66 3.195,-5.061 5.126,-7.366 7.431,-8.871 15.631,-16.866 25.338,-23.294 6.538,-4.329 12.074,-9.839 17.059,-15.894 13.441,-16.324 25.202,-33.846 36.745,-51.523 1.246,-1.907 2.404,-3.874 3.712,-5.737 1.834,-2.614 2.927,-5.493 3.302,-8.638 0.159,-1.335 0.433,-2.627 1.13,-3.756 4.24,-6.864 6.035,-14.548 7.632,-22.317 0.65,-3.165 1.318,-6.351 2.335,-9.409 C -12.597,11.042 -8.88,5.316 -2.144,2.051 -1.32,1.652 -0.344,1.314 0,0"
             style="fill:#ddc173;fill-opacity:1;fill-rule:nonzero;stroke:none"
             id="path28" />
        </g>
        <g
           id="g30"
           transform="translate(1524.4973,544.6462)">
          <path
             d="m 0,0 c 0.924,-2.358 0.355,-4.712 -0.161,-7.027 -0.337,-1.511 -0.963,-2.957 -1.426,-4.443 -0.302,-0.97 -1.287,-2.063 -0.186,-2.939 0.944,-0.753 2.06,-0.015 3.027,0.395 2.554,1.082 4.869,2.565 7.008,4.332 0.639,0.528 1.271,1.118 2.009,1.457 0.669,0.308 1.438,0.243 1.557,-0.802 0.04,-0.358 0.093,-0.714 0.132,-1.071 0.914,-8.435 4.482,-15.832 8.898,-22.91 3.63,-5.817 7.996,-11.08 12.249,-16.427 3.586,-4.508 7.024,-9.118 9.988,-14.064 2.915,-4.864 5.126,-10.015 6.309,-15.582 0.124,-0.583 0.315,-1.167 0.333,-1.755 0.04,-1.305 -0.591,-1.662 -1.807,-0.976 -1.146,0.646 -2.201,1.452 -3.344,2.106 -0.931,0.532 -1.92,0.973 -2.909,1.395 -0.445,0.189 -0.975,0.172 -1.34,-0.205 -0.414,-0.428 -0.16,-0.86 0.132,-1.255 0.071,-0.097 0.119,-0.21 0.192,-0.305 7.582,-9.982 11.383,-21.507 13.697,-33.633 2.403,-12.598 5.28,-25.075 9.374,-37.245 2.557,-7.599 3.194,-15.465 3.314,-23.4 0.085,-5.643 0.315,-11.263 1.48,-16.812 1.004,-4.777 2.931,-9.074 6.051,-12.871 3.196,-3.89 6.259,-7.89 9.345,-11.869 1.508,-1.946 1.348,-2.803 -0.89,-3.765 -3.431,-1.474 -7.04,-1.38 -10.602,-0.615 -5.706,1.226 -10.333,4.329 -14.233,8.592 -3.429,3.748 -6.117,7.999 -8.295,12.559 -2.011,4.214 -3.882,8.496 -5.752,12.775 -1.303,2.982 -2.715,5.939 -4.926,8.317 -6.761,7.269 -10.177,16.108 -12.455,25.545 -1.741,7.216 -2.851,14.577 -5.013,21.696 -1.535,5.051 -3.305,10.007 -5.839,14.658 -0.401,0.736 -0.836,1.455 -1.297,2.155 -0.407,0.619 -0.937,1.143 -1.754,0.804 -0.677,-0.28 -0.545,-0.987 -0.628,-1.557 -1.563,-10.649 0.198,-20.786 4.936,-30.384 2.935,-5.944 4.871,-12.218 6.75,-18.533 3.762,-12.633 7.876,-25.136 13.64,-37.036 3.456,-7.133 7.673,-13.788 12.335,-20.18 1.299,-1.781 3.398,-2.96 4.151,-5.497 -1.826,0.075 -3.123,0.976 -4.365,1.787 -6.191,4.049 -12.494,7.934 -18.128,12.786 -2.86,2.463 -5.176,5.274 -6.924,8.629 -4.169,7.999 -7.562,16.28 -9.626,25.085 -1.183,5.045 -3.242,9.763 -5.534,14.386 -0.265,0.534 -0.561,1.067 -0.927,1.535 -1.093,1.4 -1.746,1.39 -2.643,-0.12 -0.547,-0.921 -0.875,-1.969 -1.379,-2.918 -1.033,-1.945 -2.115,-2.051 -3.477,-0.263 -1.312,1.724 -2.219,3.692 -3.047,5.69 -2.253,5.428 -3.969,11.04 -5.661,16.659 -1.658,5.509 -3.395,11.008 -3.106,16.878 0.006,0.119 -0.004,0.241 -0.019,0.359 -0.088,0.684 0.092,1.579 -0.793,1.801 -1.041,0.262 -1.431,-0.631 -1.839,-1.361 -0.409,-0.732 -0.782,-1.484 -1.198,-2.211 -1.019,-1.776 -2.219,-3.428 -3.656,-4.883 -1.756,-1.778 -2.386,-1.629 -3.133,0.665 -0.481,1.479 -0.916,2.974 -1.383,4.458 -4.401,13.991 -13.223,24.821 -24.326,34.017 -0.369,0.306 -0.735,0.644 -1.16,0.847 -0.879,0.419 -1.87,0.463 -1.642,-0.845 0.445,-2.552 -1.068,-2.723 -2.924,-2.861 -3.371,-0.251 -6.704,-0.256 -9.97,0.776 -0.564,0.178 -1.157,0.302 -1.945,-0.062 -0.62,-1.467 0.395,-2.628 1.096,-3.775 4.748,-7.758 11.018,-13.835 19.443,-17.545 1.114,-0.49 3.235,-0.637 2.853,-2.128 -0.414,-1.618 -2.452,-1.056 -3.807,-0.885 -2.513,0.318 -4.886,1.19 -7.084,2.46 -10.269,5.935 -20.518,11.904 -30.798,17.821 -1.956,1.126 -3.017,2.638 -2.907,4.944 0.051,1.076 -0.125,2.163 -0.057,3.236 0.371,5.873 -0.785,11.427 -3.23,16.767 -1.224,2.672 -1.014,3.03 1.315,4.765 4.752,3.542 10.101,4.108 15.747,3.221 9.002,-1.414 17.938,-3.09 26.496,-6.373 2.69,-1.032 5.337,-2.123 7.817,-3.601 4.56,-2.717 9.638,-4.223 14.512,-6.21 1.242,-0.506 2.289,-0.323 3.344,0.482 2.751,2.099 5.92,3.093 9.338,3.357 0.721,0.055 1.5,0.028 1.842,0.823 0.438,1.017 -0.337,1.583 -0.994,2.046 -8.846,6.233 -14.734,14.972 -20.394,23.923 -2.625,4.154 -5.35,8.246 -8.093,12.324 -4.33,6.437 -9.575,11.974 -16.165,16.159 -0.405,0.257 -0.84,0.485 -1.191,0.804 -0.734,0.666 -2.285,0.949 -1.728,2.315 0.455,1.116 1.698,0.515 2.595,0.447 5.869,-0.444 11.748,-0.563 17.618,-0.253 7.616,0.403 14.933,2.073 21.69,5.78 5.573,3.058 10.186,7.139 13.541,12.59 C -1.477,-1.266 -1.258,-0.193 0,0"
             style="fill:#ddc173;fill-opacity:1;fill-rule:nonzero;stroke:none"
             id="path32" />
        </g>
        <g
           id="g34"
           transform="translate(253.5055,334.0851)">
          <path
             d="m 0,0 h 0.011 c 0,-24.715 -0.02,-49.431 0.022,-74.146 0.006,-3.715 0.17,-7.44 0.487,-11.141 0.557,-6.512 4.871,-11.196 11.024,-11.877 14.066,-1.558 27.762,-0.054 40.895,5.437 16.774,7.014 28.711,18.679 34.938,36.019 5.157,14.36 7.765,29.154 8.169,44.349 0.345,12.972 -0.448,25.902 -2.187,38.762 -1.712,12.654 -4.786,24.92 -10.57,36.41 -7.664,15.222 -19.264,25.778 -35.817,30.55 -2.071,0.597 -4.122,1.272 -6.213,1.786 -8.916,2.194 -17.894,3.288 -27.076,1.788 C 6.221,96.718 0.596,91.959 0.328,83.495 0.214,79.899 0.019,76.303 0.015,72.706 -0.013,48.471 0,24.235 0,0 m -12.465,-12.605 c 0,27.238 0.002,54.477 -0.005,81.715 0,1.679 -0.053,3.359 -0.111,5.038 -0.051,1.493 -0.7,2.691 -2.294,2.659 -1.454,-0.029 -1.908,-1.228 -1.932,-2.561 -0.03,-1.679 -0.096,-3.358 -0.097,-5.037 -0.016,-53.277 -0.023,-106.553 -0.044,-159.83 -0.001,-2.759 -0.034,-5.522 -0.189,-8.275 -0.136,-2.421 -0.628,-2.916 -3.106,-2.93 -5.518,-0.03 -11.037,0.11 -16.555,0.085 -1.707,-0.008 -2.35,0.726 -2.437,2.333 -0.123,2.239 0.041,4.195 2.238,5.614 5.52,3.566 7.549,9.084 8.054,15.32 0.164,2.028 0.111,4.076 0.111,6.115 0.006,49.557 0.005,99.115 0.01,148.672 0,2.524 -0.237,5.006 -0.662,7.507 -0.814,4.788 -3.168,8.463 -7.194,11.119 -0.985,0.651 -2.077,1.16 -2.435,2.488 -0.901,3.342 0.204,4.873 3.794,4.889 9.958,0.044 19.915,0.034 29.873,0.031 15.476,-0.005 30.953,0.079 46.428,-0.064 13.07,-0.121 25.748,-2.645 37.873,-7.497 24.104,-9.645 39.411,-27.38 46.943,-52.015 3.564,-11.658 5.067,-23.661 5.279,-35.82 0.293,-16.739 -0.919,-33.303 -5.866,-49.437 -9.176,-29.927 -29.096,-48.304 -59.466,-55.435 -11.012,-2.585 -22.212,-3.777 -33.518,-3.859 -13.316,-0.098 -26.632,-0.112 -39.948,-0.15 -0.836,-0.002 -1.676,0.068 -2.507,0.167 -1.402,0.166 -2.119,0.972 -2.13,2.404 -0.012,1.68 -0.067,3.359 -0.067,5.039 -0.005,27.238 -0.004,54.477 -0.004,81.715 z"
             style="fill:#ddc173;fill-opacity:1;fill-rule:nonzero;stroke:none"
             id="path36" />
        </g>
        <g
           id="g38"
           transform="translate(794.7304,482.4688)">
          <path
             d="m 0,0 c -26.753,0 -53.505,-0.001 -80.258,0.002 -1.079,0 -2.161,-0.01 -3.237,0.059 -1.196,0.076 -2.068,0.632 -2.21,1.924 -0.156,1.428 0.83,1.87 1.964,2.074 1.886,0.341 3.781,0.635 5.674,0.935 2.733,0.434 5.397,1.118 7.914,2.286 8.216,3.811 12.502,10.308 12.545,19.312 0.115,23.877 0.064,47.755 0.073,71.633 0.002,5.519 -0.053,11.039 -0.024,16.558 0.02,3.805 0.323,4.133 4.116,4.143 13.316,0.035 26.632,0.051 39.948,-0.002 2.897,-0.012 5.758,0.233 8.591,0.717 3.23,0.551 3.499,1.222 1.914,3.977 -0.477,0.83 -1.018,1.625 -1.546,2.425 -18.711,28.304 -37.422,56.608 -56.137,84.909 -1.588,2.401 -3.186,4.799 -5.14,6.927 -4.602,5.014 -10.188,8.29 -16.922,9.52 -0.586,0.107 -1.204,0.136 -1.748,0.352 -1.046,0.417 -1.291,1.316 -1.207,2.361 0.081,1.004 0.649,1.496 1.609,1.592 0.596,0.059 1.195,0.133 1.793,0.133 6.358,0.003 12.717,-0.044 19.074,0.012 1.609,0.015 2.759,-0.557 3.66,-1.824 0.764,-1.074 1.603,-2.097 2.342,-3.187 21.399,-31.558 42.788,-63.121 64.181,-94.682 0.403,-0.595 0.793,-1.205 1.253,-1.755 1.501,-1.795 2.148,-1.901 3.915,-0.719 1.753,1.173 1.961,1.931 0.822,3.853 -1.038,1.751 -2.174,3.447 -3.317,5.133 -19.443,28.683 -38.896,57.359 -58.336,86.043 -1.075,1.586 -2.139,3.189 -3.062,4.864 -0.638,1.158 -0.395,2.13 1.185,2.21 1.078,0.054 2.158,0.063 3.238,0.064 41.028,0.003 82.057,0.004 123.086,0.001 4.616,0 5.001,-0.279 5.402,-5.051 0.583,-6.932 1.039,-13.875 1.512,-20.815 0.629,-9.215 1.221,-18.432 1.83,-27.649 0.039,-0.598 0.102,-1.197 0.112,-1.796 0.023,-1.348 0.068,-2.768 -1.7,-3.08 -1.645,-0.291 -2.772,0.297 -3.198,2.057 -0.366,1.51 -0.892,2.981 -1.323,4.476 -4.544,15.787 -13.058,28.734 -27.155,37.583 -9.967,6.256 -20.964,9.557 -32.672,9.789 -15.589,0.309 -31.189,0.098 -46.785,0.103 -0.717,0 -1.456,0.01 -2.147,-0.148 -0.982,-0.226 -1.41,-0.955 -1.014,-1.898 0.367,-0.877 0.883,-1.7 1.403,-2.502 17.753,-27.353 35.51,-54.703 53.292,-82.038 0.688,-1.057 1.096,-2.665 2.658,-2.664 1.816,10e-4 2.033,1.833 2.657,3.027 2.593,4.959 3.563,10.396 4.396,15.853 0.169,1.107 0.227,2.161 1.503,2.581 1.894,0.622 3.325,-0.266 3.561,-2.273 0.083,-0.711 0.041,-1.438 0.041,-2.158 0.002,-25.437 0.002,-50.875 0.001,-76.313 0,-0.72 -0.021,-1.439 -0.021,-2.159 -0.001,-1.447 -0.744,-2.256 -2.158,-2.355 -1.448,-0.101 -2.612,0.289 -2.874,1.992 -0.273,1.777 -0.522,3.563 -0.92,5.314 C 28.74,96.728 19.141,106.159 5.1,111.46 c -5.307,2.003 -10.845,2.981 -16.552,2.877 -3.238,-0.06 -6.479,0.022 -9.717,-0.044 -2.63,-0.054 -3.069,-0.529 -3.216,-3.178 -0.059,-1.077 -0.038,-2.159 -0.038,-3.239 0.003,-26.157 0.007,-52.315 0.019,-78.472 0,-1.8 0.011,-3.602 0.113,-5.398 0.409,-7.2 4.006,-12.442 10.161,-15.932 4.007,-2.272 8.406,-3.695 13.009,-3.751 10.546,-0.13 21.101,-0.628 31.634,0.566 27.137,3.076 47.301,19.926 53.715,48.87 0.571,2.572 0.98,5.18 1.477,7.769 0.136,0.705 0.285,1.411 0.49,2.098 0.44,1.466 1.615,1.624 2.877,1.487 1.357,-0.146 1.722,-1.05 1.682,-2.29 -0.09,-2.758 -0.025,-5.525 -0.21,-8.276 C 89.419,37.792 88.253,21.039 87.073,4.288 86.805,0.49 86.215,-0.004 82.057,-0.005 54.705,-0.017 27.352,-0.012 0,-0.012 Z"
             style="fill:#ddc173;fill-opacity:1;fill-rule:nonzero;stroke:none"
             id="path40" />
        </g>
        <g
           id="g42"
           transform="translate(1481.6599,595.9151)">
          <path
             d="m 0,0 c -2.584,0.581 -4.871,1.055 -7.136,1.613 -3.16,0.777 -6.109,2.099 -8.958,3.65 -0.73,0.397 -1.646,0.807 -1.259,1.856 0.313,0.845 1.207,0.548 1.884,0.549 4.884,0.008 9.504,0.977 13.737,3.547 4.317,2.621 7.824,6.012 9.733,10.732 0.923,2.283 2.324,3.047 4.661,2.978 2.994,-0.088 5.995,0.143 8.992,0.125 1.731,-0.01 3.079,0.539 3.82,2.124 1.637,3.504 4.732,4.457 8.198,4.91 2.604,0.341 5.232,0.46 7.761,1.391 4.075,1.5 7,4.246 8.672,8.128 1.443,3.351 4.425,3.799 7.288,4.435 1.375,0.305 2.153,-0.861 2.169,-2.254 0.023,-2.035 -0.051,-4.072 -0.051,-6.108 0,-1.864 0.442,-2.131 2.101,-1.33 3.779,1.823 3.778,1.822 5.544,-1.982 1.064,-2.291 1.764,-4.707 2.429,-7.132 0.621,-2.268 0.367,-4.492 -0.326,-6.722 -9.12,-29.349 -28.67,-47.82 -58.32,-55.458 -11.129,-2.867 -22.491,-3.377 -33.858,-1.008 -0.467,0.097 -0.948,0.157 -1.425,0.173 -0.834,0.028 -1.669,0.008 -2.731,0.008 0.882,-1.374 2.219,-1.638 3.367,-2.067 13.335,-4.981 27.04,-7.243 41.277,-5.508 1.501,0.183 3.019,0.233 4.816,0.367 -0.417,-1.926 -1.87,-2.172 -2.925,-2.675 -15.176,-7.244 -30.651,-7.88 -46.371,-1.908 -3.58,1.36 -7.085,2.915 -10.651,4.312 -4.439,1.739 -9.055,2.274 -13.778,1.709 -6.039,-0.722 -11.47,-6.309 -11.642,-11.892 -0.083,-2.68 0.495,-3.225 2.792,-2.011 9.371,4.952 19.3,-0.845 22.6,-9.872 0.994,-2.718 1.554,-5.535 1.993,-8.372 0.238,-1.539 0.045,-3.1 -0.404,-4.626 -1.043,-3.55 -2.757,-5.005 -6.474,-4.969 -3.262,0.032 -6.492,-0.134 -9.602,-1.091 -4.315,-1.327 -8.02,-3.729 -11.176,-6.961 -1.257,-1.287 -2.435,-2.654 -3.735,-3.895 -8.229,-7.858 -23.035,-4.531 -26.009,8.122 -0.856,3.645 -1.035,7.368 -0.941,11.087 0.814,32.016 0.824,64.041 1.032,96.064 0.04,6.084 3.029,8.05 8.276,8.927 4.159,0.694 8.096,-0.415 11.768,-2.402 2.867,-1.552 5.372,-3.588 7.673,-5.897 4.909,-4.927 9.788,-9.888 15.271,-14.203 8.275,-6.512 17.272,-11.619 27.502,-14.404 6.548,-1.783 13.204,-2.271 19.944,-1.875 0.987,0.058 2.576,-0.228 2.608,1.092 0.031,1.319 -1.591,1.136 -2.595,1.343 -2.452,0.505 -5.031,0.403 -7.344,1.574 -0.639,0.324 -1.524,0.533 -1.569,1.319 -0.059,1.044 0.945,1.312 1.726,1.473 1.875,0.387 3.773,0.67 5.667,0.951 C -2.531,-1.848 -1.25,-1.365 0,0"
             style="fill:#ddc173;fill-opacity:1;fill-rule:nonzero;stroke:none"
             id="path44" />
        </g>
        <g
           id="g46"
           transform="translate(1101.5144,604.8658)">
          <path
             d="m 0,0 c 0.362,8.331 -0.779,18.458 -2.234,28.554 -2.218,15.389 -6.299,30.25 -13.207,44.224 -5.203,10.525 -11.875,19.988 -21.118,27.432 -18.431,14.844 -42.822,14.91 -61.334,0.178 -5.296,-4.215 -9.901,-9.093 -13.637,-14.726 -3.652,-5.507 -3.849,-4.21 0.218,-9.427 13.492,-17.306 27.066,-34.55 40.614,-51.813 19.989,-25.471 39.976,-50.944 59.997,-76.39 0.849,-1.079 1.515,-2.961 3.08,-2.672 1.595,0.295 1.439,2.262 1.781,3.598 C -1.716,-34.922 0.006,-18.514 0,0 m 40.167,-3.525 c -0.31,-30.149 -9.902,-57.396 -29.57,-80.978 -1.227,-1.473 -2.543,-2.877 -3.888,-4.245 -3.002,-3.055 -3.118,-3.057 -5.771,0.124 -2.382,2.855 -4.708,5.757 -7.042,8.652 -42.848,53.133 -85.693,106.267 -128.534,159.405 -0.903,1.12 -1.709,2.32 -2.636,3.419 -1.177,1.395 -0.902,2.634 0.314,3.763 1.758,1.632 3.524,3.258 5.355,4.806 15.117,12.775 32.456,20.782 52.054,23.48 20.506,2.823 39.903,-1.212 57.984,-11.085 C 4.997,89.311 22.628,67.141 32.871,38.901 37.78,25.367 40.084,11.339 40.167,-3.525"
             style="fill:#ddc173;fill-opacity:1;fill-rule:nonzero;stroke:none"
             id="path48" />
        </g>
        <g
           id="g50"
           transform="translate(1656.6407,577.975)">
          <path
             d="m 0,0 c 1.498,-0.531 2.135,-1.71 2.85,-2.754 10.161,-14.837 16.029,-31.23 17.954,-49.1 0.695,-6.456 0.692,-12.935 1.114,-19.398 0.601,-9.216 2.925,-17.935 7.004,-26.206 0.567,-1.15 1.796,-2.393 0.914,-3.619 -0.878,-1.221 -2.483,-0.405 -3.71,-0.26 -10.932,1.295 -20.039,6.159 -27.445,14.268 -0.807,0.885 -1.543,1.847 -2.423,2.651 -1.301,1.187 -1.887,0.983 -2.537,-0.736 -0.127,-0.335 -0.233,-0.683 -0.304,-1.034 -2.827,-13.878 -10.814,-24.343 -21.765,-32.82 -1.891,-1.465 -3.932,-2.74 -5.928,-4.066 -1.398,-0.928 -2.833,-1.8 -4.258,-2.687 -10.847,-6.748 -14.646,-16.771 -11.699,-29.422 1.848,-7.936 5.558,-15.02 10.11,-21.703 1.337,-1.962 2.679,-3.921 4.113,-6.02 -1.124,-0.757 -1.995,-0.448 -2.865,-0.165 -3.225,1.05 -6.134,2.719 -8.858,4.694 -1.503,1.09 -3.115,1.869 -4.936,1.975 -5.579,0.323 -8.951,3.675 -11.312,8.27 -2.33,4.534 -3.131,9.516 -3.854,14.513 -1.879,12.981 0.091,25.559 3.84,37.962 0.096,0.319 0.388,0.58 0.722,1.058 0.856,-0.678 0.926,-1.552 0.95,-2.442 0.048,-1.799 0.076,-3.598 0.137,-5.397 0.028,-0.815 -0.158,-1.795 0.835,-2.174 1.145,-0.436 1.758,0.444 2.338,1.206 0.799,1.048 1.622,2.088 2.315,3.206 5.146,8.302 8.055,17.376 8.871,27.07 0.535,6.347 0.354,12.708 -1.1,18.965 -0.594,2.554 -0.347,4.997 0.893,7.327 1.3,2.442 1.931,2.62 4.043,0.85 4.883,-4.092 9.353,-8.603 13.524,-13.423 0.935,-1.08 1.682,-3.32 3.457,-2.341 1.376,0.76 0.837,2.877 0.605,4.366 -1.017,6.527 -3.689,12.368 -7.727,17.573 -3.319,4.279 -7.092,8.14 -11.196,11.668 -4.193,3.606 -8.043,7.555 -11.776,11.622 -4.028,4.388 -6.966,9.436 -8.963,15.033 -0.556,1.557 -1.27,3.124 -0.74,4.828 0.932,0.496 1.388,-0.162 1.843,-0.687 4.65,-5.367 10.489,-9.057 16.84,-12.047 5.959,-2.807 11.916,-5.619 17.843,-8.493 6.413,-3.109 12.16,-7.186 17.359,-12.066 1.832,-1.72 3.801,-3.307 5.802,-4.83 2.213,-1.684 4.703,-2.885 7.449,-3.423 2.849,-0.559 3.527,0.106 3.267,2.907 -0.158,1.695 -0.717,3.276 -1.277,4.854 -4.409,12.419 -12.238,22.449 -21.952,31.108 -9.189,8.19 -19.578,14.617 -30.477,20.245 -5.854,3.022 -11.763,5.935 -17.647,8.899 -5.679,2.861 -11.274,5.847 -16.238,9.898 -1.984,1.62 -2.896,1.303 -3.24,-1.276 -1.618,-12.115 -1.67,-24.153 2.325,-35.913 0.622,-1.831 1.737,-3.412 2.771,-5.024 3.171,-4.945 6.396,-9.856 9.525,-14.827 3.277,-5.205 5.681,-10.79 7.183,-16.776 1.055,-4.205 0.723,-8.319 -0.389,-12.429 -0.122,-0.452 -0.299,-0.951 -0.609,-1.277 -0.561,-0.59 -1.237,-0.824 -1.59,0.227 -0.266,0.792 -0.447,1.615 -0.636,2.431 -0.79,3.401 -2.015,6.649 -3.56,9.767 -0.635,1.28 -1.397,2.525 -2.283,3.642 -1.042,1.314 -1.951,1.106 -2.56,-0.505 -0.337,-0.891 -0.489,-1.85 -0.753,-2.771 -0.329,-1.146 -0.673,-2.295 -2.088,-2.642 -0.236,0.279 -0.591,0.515 -0.674,0.825 -1.697,6.262 -5.242,11.515 -8.982,16.679 -2.109,2.912 -4.157,5.873 -6.11,8.892 -3.307,5.113 -5.344,10.721 -5.902,16.793 -0.159,1.729 -0.856,2.626 -2.481,2.985 -0.693,0.153 -1.401,0.361 -2.024,0.69 -1.883,0.995 -2.13,1.883 -1.141,3.765 0.166,0.317 0.376,0.613 0.589,0.902 9.064,12.311 12.66,26.714 15.739,41.301 0.842,3.99 1.282,8.044 1.522,12.123 0.144,2.445 1.016,2.894 2.803,1.345 5.433,-4.711 11.842,-7.765 18.341,-10.493 18.629,-7.819 34.034,-19.945 47.52,-34.741 6.724,-7.378 12.591,-15.41 18.02,-23.773 0.522,-0.804 1.042,-1.611 1.585,-2.401 0.46,-0.669 0.794,-1.619 1.861,-1.367 1.194,0.282 1.287,1.329 1.242,2.295 C 1.729,-15.858 1.191,-9.892 0.112,-3.983 -0.114,-2.748 -0.626,-1.503 0,0"
             style="fill:#ddc173;fill-opacity:1;fill-rule:nonzero;stroke:none"
             id="path52" />
        </g>
        <g
           id="g54"
           transform="translate(465.2924,232.1064)">
          <path
             d="m 0,0 c -21.831,0 -43.662,-0.007 -65.493,0.009 -2.637,0.002 -5.275,0.11 -7.912,0.21 -0.939,0.035 -1.573,0.532 -1.693,1.525 -0.122,1.02 0.428,1.612 1.347,1.807 1.988,0.424 3.982,0.834 5.99,1.147 3.501,0.545 6.685,1.878 9.605,3.823 4.861,3.236 7.144,7.996 7.494,13.665 0.258,4.185 0.204,8.392 0.208,12.589 0.017,20.635 0.002,41.271 0.018,61.906 10e-4,1.917 0.161,3.833 0.207,5.75 0.039,1.607 0.767,2.428 2.427,2.4 1.318,-0.022 2.638,0.057 3.957,0.058 11.036,0.007 22.071,0.025 33.106,-0.006 2.416,-0.007 4.799,0.199 7.131,0.78 1.984,0.493 2.255,1.263 1.254,3.111 -0.341,0.631 -0.765,1.217 -1.161,1.817 -16.711,25.308 -33.446,50.601 -50.117,75.936 -3.509,5.332 -7.736,9.735 -13.72,12.265 -1.896,0.802 -3.907,1.124 -5.861,1.68 -1.167,0.331 -2.063,0.836 -1.882,2.174 0.187,1.386 1.313,1.538 2.446,1.538 5.397,0.001 10.795,-0.029 16.193,0.007 1.374,0.009 2.243,-0.703 2.982,-1.692 1.148,-1.536 2.289,-3.079 3.39,-4.649 20.241,-28.858 40.475,-57.721 60.714,-86.58 0.619,-0.883 1.23,-1.777 1.914,-2.609 0.819,-0.996 1.782,-1.074 2.84,-0.299 1.039,0.762 1.326,1.666 0.616,2.783 -0.578,0.91 -1.18,1.806 -1.798,2.689 -19.884,28.376 -39.78,56.745 -59.635,85.141 -0.914,1.308 -2.805,2.608 -1.983,4.303 0.866,1.784 3.056,0.886 4.626,0.889 36.225,0.063 72.45,0.067 108.675,0.059 5.284,-0.001 5.349,-0.05 5.74,-5.356 0.98,-13.277 1.9,-26.558 2.828,-39.839 0.092,-1.314 0.091,-2.637 0.097,-3.956 0.005,-1.048 -0.318,-1.914 -1.518,-2.084 -1.179,-0.168 -2.201,0.169 -2.67,1.319 -0.403,0.992 -0.61,2.065 -0.887,3.106 -3.469,13.04 -10.073,24.052 -21.063,32.128 -9.996,7.346 -21.414,10.637 -33.671,10.864 -12.831,0.238 -25.668,0.072 -38.503,0.077 -0.598,10e-4 -1.213,0.036 -1.791,-0.085 -1.526,-0.318 -1.972,-1.142 -1.397,-2.618 0.258,-0.66 0.671,-1.266 1.06,-1.866 14.945,-23.025 29.892,-46.047 44.849,-69.064 0.848,-1.305 1.694,-2.626 2.688,-3.818 1.231,-1.477 2.045,-1.426 3.032,0.212 2.066,3.43 3.182,7.217 3.871,11.136 0.249,1.417 0.448,2.844 0.623,4.272 0.174,1.425 0.974,2.164 2.373,2.173 1.532,0.01 2.059,-0.974 2.093,-2.347 0.018,-0.719 0.031,-1.439 0.031,-2.158 0.002,-21.955 0.003,-43.911 -0.002,-65.866 0,-0.958 -0.038,-1.918 -0.083,-2.876 -0.061,-1.27 -0.767,-2.037 -2.004,-2.103 -1.224,-0.064 -2.036,0.635 -2.317,1.836 -0.218,0.933 -0.388,1.881 -0.522,2.83 -1.637,11.575 -8.142,19.715 -18.033,25.398 -6.824,3.92 -14.334,5.28 -22.094,5.503 -2.275,0.066 -4.561,0.036 -6.832,-0.105 -2.374,-0.147 -2.831,-0.69 -2.973,-3.12 -0.07,-1.196 -0.043,-2.398 -0.043,-3.598 0.005,-22.915 0.346,-45.836 -0.104,-68.742 C -21.62,11.035 -12.883,5.242 -3.09,4.334 9.544,3.163 22.342,2.828 34.845,5.902 c 21.033,5.17 33.481,18.983 38.98,39.532 0.71,2.652 1.063,5.4 1.585,8.104 0.159,0.822 0.268,1.661 0.513,2.458 0.392,1.28 1.456,1.499 2.598,1.385 1.157,-0.117 1.639,-0.917 1.639,-1.995 0.001,-1.678 0.007,-3.36 -0.106,-5.033 C 79.194,37.669 78.309,24.988 77.426,12.306 77.218,9.314 77.031,6.32 76.763,3.334 76.538,0.822 76.238,0.505 73.757,0.21 72.334,0.04 70.887,0.009 69.451,0.008 46.301,-0.003 23.15,0 0,0"
             style="fill:#ddc173;fill-opacity:1;fill-rule:nonzero;stroke:none"
             id="path56" />
        </g>
        <g
           id="g58"
           transform="translate(618.3582,334.1402)">
          <path
             d="m 0,0 c 0,-17.879 0.023,-35.757 -0.012,-53.636 -0.012,-6.388 0.387,-12.755 2.263,-18.863 4.191,-13.65 13.088,-22.296 27.41,-24.87 0.943,-0.17 1.882,-0.367 2.822,-0.56 1.121,-0.229 1.594,-1.025 1.636,-2.068 0.046,-1.17 -0.68,-1.737 -1.77,-1.84 -1.071,-0.101 -2.149,-0.188 -3.224,-0.188 -20.035,-0.011 -40.069,-0.013 -60.104,0.001 -1.557,0.002 -3.115,0.115 -4.671,0.207 -1.086,0.064 -1.828,0.542 -1.85,1.75 -0.02,1.101 0.476,1.839 1.566,2.094 0.817,0.19 1.642,0.358 2.471,0.478 15.497,2.242 24.52,11.491 28.299,26.3 1.099,4.304 1.587,8.716 1.585,13.183 -0.017,41.637 -0.029,83.274 0.033,124.911 0.004,2.779 -0.657,5.092 -2.303,7.323 -3.06,4.147 -5.793,8.533 -9.477,12.201 -5.194,5.172 -11.018,9.223 -18.372,10.667 -0.694,0.137 -1.408,0.345 -2.02,0.688 -0.965,0.54 -1.1,1.528 -0.959,2.521 0.151,1.066 0.78,1.737 1.895,1.815 0.836,0.058 1.677,0.071 2.516,0.072 13.436,0.009 26.874,-0.098 40.308,0.098 3.297,0.048 5.268,-1.163 7.135,-3.701 C 38.129,67.378 61.159,36.229 84.173,5.07 c 12.754,-17.268 25.514,-34.532 38.281,-51.791 0.998,-1.348 2.053,-2.655 3.116,-3.953 0.363,-0.443 0.752,-0.978 1.485,-0.681 0.668,0.27 0.765,0.876 0.802,1.469 0.067,1.077 0.106,2.157 0.106,3.236 0.013,34.438 0.041,68.875 0.009,103.312 -0.006,6.376 -0.579,12.722 -2.756,18.775 -4.628,12.867 -13.603,20.542 -27.262,22.522 -1.179,0.171 -2.36,0.436 -3.487,0.815 -0.937,0.315 -1.089,1.208 -0.991,2.092 0.091,0.811 0.597,1.301 1.399,1.391 0.833,0.092 1.675,0.144 2.513,0.144 21.234,0.008 42.468,0.008 63.703,0.001 0.837,-0.001 1.676,-0.068 2.511,-0.141 0.966,-0.086 1.568,-0.672 1.658,-1.598 0.089,-0.915 -0.421,-1.654 -1.265,-1.965 -0.893,-0.33 -1.843,-0.556 -2.788,-0.686 -14.641,-2.001 -25.639,-13.059 -28.71,-28.779 -1.179,-6.032 -1.323,-12.145 -1.323,-18.273 0.006,-42.116 -0.015,-84.232 -0.034,-126.348 -10e-4,-1.199 0.024,-2.414 -0.158,-3.591 -0.139,-0.902 -0.871,-1.182 -1.527,-0.467 -1.049,1.145 -2.028,2.366 -2.937,3.626 -20.693,28.694 -41.374,57.396 -62.053,86.1 C 47.782,33.437 31.105,56.6 14.42,79.756 13.228,81.409 12,83.036 10.77,84.662 9.878,85.84 8.787,86.494 7.405,85.473 6.149,84.543 6.499,83.399 7.216,82.305 7.808,81.403 8.419,80.514 9.049,79.639 48.927,24.269 88.771,-31.125 128.752,-86.419 c 3.296,-4.558 2.363,-9.279 2.19,-14.111 -0.023,-0.65 -0.543,-1.043 -1.19,-1.158 -0.353,-0.062 -0.717,-0.052 -1.076,-0.085 -6.56,-0.603 -6.595,-0.628 -10.438,4.686 C 81.481,-46.267 44.739,4.563 7.984,55.385 6.298,57.716 4.548,60.002 2.804,62.291 2.448,62.757 2.029,63.265 1.332,63.127 0.497,62.961 0.199,62.287 0.139,61.551 0.05,60.477 0.033,59.394 0.032,58.315 0.027,38.877 0.028,19.439 0.028,0 Z"
             style="fill:#ddc173;fill-opacity:1;fill-rule:nonzero;stroke:none"
             id="path60" />
        </g>
        <g
           id="g62"
           transform="translate(966.8516,604.0249)">
          <path
             d="m 0,0 c -0.468,-17.315 1.636,-33.804 5.761,-50.024 3.742,-14.715 9.188,-28.733 17.983,-41.27 5.074,-7.234 10.951,-13.709 18.502,-18.389 16.948,-10.505 33.962,-10.265 50.756,0.354 6.548,4.141 11.904,9.647 16.443,15.931 2.988,4.136 3.032,4.167 -0.173,8.25 C 75.742,-42.423 42.197,0.292 8.65,43.005 8.136,43.66 7.608,44.334 6.967,44.851 6.168,45.497 5.309,45.382 4.986,44.329 4.424,42.502 3.902,40.649 3.547,38.772 1.092,25.783 -0.433,12.706 0,0 m 68.128,-121.619 c -26.101,0.389 -47.804,9.236 -66.433,25.468 -21.764,18.964 -34.842,42.979 -39.982,71.352 -1.328,7.332 -2.158,14.721 -2.074,22.174 0.339,30.2 9.733,57.157 29.019,80.538 0.458,0.555 0.872,1.165 1.409,1.632 0.929,0.809 1.968,0.934 2.86,-0.048 1.127,-1.242 2.204,-2.532 3.257,-3.837 26.811,-33.235 53.618,-66.472 80.421,-99.713 17.392,-21.569 34.775,-43.144 52.162,-64.717 0.527,-0.654 1.067,-1.297 1.574,-1.966 3.481,-4.594 4.229,-4.069 -1.053,-8.32 -14.212,-11.439 -30.331,-18.709 -48.353,-21.553 -4.603,-0.727 -9.316,-0.751 -12.807,-1.01"
             style="fill:#ddc173;fill-opacity:1;fill-rule:nonzero;stroke:none"
             id="path64" />
        </g>
        <g
           id="g66"
           transform="translate(896.4656,344.8805)">
          <path
             d="m 0,0 c 0,26.756 -0.006,53.512 0.009,80.268 0.001,2.878 0.125,5.757 0.191,8.635 0.04,1.768 0.961,2.614 2.711,2.616 1.08,10e-4 2.159,0.035 3.239,0.035 23.512,0.003 47.024,0.005 70.535,0 4.953,-0.001 5.284,-0.224 5.66,-5.15 0.576,-7.534 1.004,-15.079 1.507,-22.619 0.56,-8.377 1.144,-16.752 1.695,-25.129 0.094,-1.435 0.129,-2.879 0.098,-4.316 -0.064,-2.959 -0.312,-3.255 -2.499,-3.354 -2.382,-0.108 -3.084,0.5 -3.483,3.029 -1.348,8.564 -3.62,16.861 -7.35,24.708 -3.488,7.335 -8.058,13.889 -14.334,19.142 -7.236,6.055 -15.666,9.172 -24.996,9.85 C 27.6,88.106 22.193,88.051 16.796,87.856 13.526,87.738 13.193,87.381 13.068,84.02 13.006,82.342 13.02,80.661 13.02,78.982 13.018,25.83 13.015,-27.322 13.028,-80.473 c 10e-4,-3.358 0.163,-6.716 0.205,-10.075 0.134,-10.838 7.141,-16.272 16.915,-17.413 2.974,-0.347 5.979,-0.444 8.971,-0.635 0.987,-0.062 1.916,-0.161 2.405,-1.21 0.564,-1.213 0.049,-2.426 -1.322,-2.709 -1.046,-0.216 -2.144,-0.249 -3.218,-0.249 -25.671,-0.012 -51.343,-0.008 -77.014,-0.005 -0.719,0.001 -1.44,0.009 -2.158,0.046 -1.298,0.068 -2.482,0.445 -2.504,1.978 -0.021,1.453 0.966,2.057 2.35,2.147 2.274,0.146 4.543,0.442 6.817,0.48 3.426,0.057 6.63,0.942 9.727,2.293 4.73,2.064 7.643,5.707 8.793,10.681 0.565,2.442 0.902,4.935 0.9,7.482 -0.028,55.071 -0.02,110.142 -0.027,165.213 0,2.4 -0.065,4.799 -0.12,7.198 -0.042,1.792 -0.776,3.062 -2.749,3.065 -8.501,0.014 -17.028,0.692 -25.456,-1.104 -11.035,-2.352 -19.349,-8.588 -25.565,-17.828 -5.361,-7.968 -8.533,-16.85 -10.739,-26.114 -0.637,-2.676 -1.061,-5.402 -1.603,-8.102 -0.259,-1.292 -0.461,-2.671 -1.791,-3.349 -1.239,-0.631 -2.599,-0.589 -3.837,-0.043 -1.382,0.609 -1.192,1.961 -1.112,3.143 0.625,9.215 1.263,18.429 1.922,27.641 0.616,8.611 1.251,17.222 1.904,25.831 0.26,3.422 0.453,3.644 3.884,3.646 24.232,0.013 48.463,-0.007 72.695,-0.02 0.599,0 1.199,-0.04 1.798,-0.053 1.634,-0.034 2.365,-0.889 2.368,-2.498 0.003,-2.519 0.074,-5.038 0.075,-7.558 0.004,-53.751 0.002,-107.503 0.007,-161.254 0,-2.76 0.024,-5.519 0.088,-8.278 0.019,-0.827 0.108,-1.683 0.352,-2.467 0.319,-1.023 1.161,-1.54 2.223,-1.427 0.933,0.1 1.484,0.768 1.566,1.684 0.117,1.312 0.186,2.633 0.187,3.95 0.01,28.795 0.007,57.591 0.007,86.386 z"
             style="fill:#ddc173;fill-opacity:1;fill-rule:nonzero;stroke:none"
             id="path68" />
        </g>
        <g
           id="g70"
           transform="translate(1070.5266,398.0749)">
          <path
             d="m 0,0 c -1.668,-0.82 -2.005,-2.126 -2.484,-3.345 -10.171,-25.858 -20.352,-51.712 -30.51,-77.575 -1.683,-4.284 -1.381,-4.721 3.199,-4.725 19.436,-0.016 38.871,-0.004 58.307,-0.001 0.6,0 1.202,-0.011 1.799,0.033 2.341,0.172 2.751,0.692 2.152,2.871 -0.317,1.153 -0.725,2.285 -1.159,3.399 C 21.957,-55.349 12.612,-31.355 3.228,-7.376 2.279,-4.953 1.477,-2.448 0,0 m -0.911,-90.115 c -10.317,0 -20.633,0.007 -30.949,-0.004 -4.365,-0.005 -4.731,-0.104 -6.146,-3.991 -3.806,-10.458 -8.516,-20.586 -11.348,-31.401 -1.329,-5.075 -1.722,-10.214 -0.892,-15.335 1.678,-10.361 8.364,-16.372 17.939,-19.528 2.371,-0.781 4.914,-1.035 7.375,-1.546 0.698,-0.144 1.431,-0.24 2.067,-0.533 0.676,-0.313 1.093,-0.953 1.042,-1.746 -0.051,-0.809 -0.55,-1.34 -1.322,-1.483 -0.819,-0.152 -1.662,-0.238 -2.494,-0.239 -20.513,-0.024 -41.026,-0.047 -61.539,-0.017 -1.436,0.002 -3.508,-0.515 -3.757,1.709 -0.251,2.254 1.81,2.187 3.275,2.389 8.36,1.151 14.628,5.662 19.632,12.178 3.67,4.779 6.507,10.052 8.906,15.566 7.789,17.904 14.745,36.146 21.907,54.302 10.327,26.177 20.668,52.35 30.236,78.817 0.896,2.476 1.673,4.995 2.515,7.491 0.621,1.838 0.325,3.496 -0.758,5.112 -1.979,2.952 -4.483,5.297 -7.619,6.963 -0.53,0.281 -1.237,0.484 -1.222,1.165 0.018,0.816 0.749,1.104 1.436,1.341 0.452,0.157 0.884,0.376 1.34,0.519 8.962,2.796 16.782,7.553 23.754,13.786 3.229,2.888 3.633,2.809 5.239,-1.282 8.007,-20.399 15.966,-40.817 23.965,-61.22 13.9,-35.453 27.791,-70.909 41.755,-106.337 1.974,-5.008 4.267,-9.897 6.55,-14.777 1.113,-2.38 2.445,-4.674 3.854,-6.894 2.355,-3.709 5.578,-6.197 10.107,-6.744 1.487,-0.179 3.553,-0.19 3.457,-2.282 -0.106,-2.295 -2.247,-1.671 -3.678,-1.687 -5.637,-0.062 -11.275,-0.035 -16.912,-0.021 -3.947,0.009 -4.003,0.001 -5.471,3.76 -8.192,20.97 -16.357,41.95 -24.528,62.928 -14.386,36.934 -28.769,73.87 -43.16,110.802 -0.434,1.114 -0.901,2.221 -1.433,3.291 C 11.724,15.918 10.868,16.3 9.81,15.947 8.594,15.54 8.102,14.65 8.47,13.413 8.878,12.039 9.321,10.67 9.84,9.335 c 21.738,-55.918 43.485,-111.832 65.23,-167.748 0.608,-1.562 1.288,-3.103 1.781,-4.702 0.619,-2.012 0.214,-2.535 -1.956,-2.795 -0.711,-0.085 -1.437,-0.057 -2.157,-0.056 -10.436,0.009 -20.872,0.021 -31.309,0.036 -0.718,0.002 -1.442,-0.005 -2.155,0.07 -0.992,0.105 -1.918,0.359 -2.044,1.598 -0.123,1.206 0.593,1.726 1.629,1.973 1.165,0.279 2.32,0.617 3.498,0.813 8.651,1.44 14.368,8.372 12.657,19.209 -0.509,3.22 -1.708,6.243 -2.875,9.249 -4.94,12.726 -9.947,25.427 -14.975,38.118 -1.837,4.635 -1.895,4.71 -7.126,4.746 -10.316,0.072 -20.633,0.021 -30.949,0.021 z"
             style="fill:#ddc173;fill-opacity:1;fill-rule:nonzero;stroke:none"
             id="path72" />
        </g>
        <g
           id="g74"
           transform="translate(1239.1823,344.2322)">
          <path
             d="m 0,0 c 0,-27.112 -0.007,-54.224 0.011,-81.337 0.001,-2.757 0.158,-5.514 0.229,-8.271 0.035,-1.388 0.552,-2.305 2.098,-2.327 1.392,-0.019 1.869,0.907 2.038,2.049 0.14,0.942 0.192,1.905 0.192,2.859 0.007,56.624 0.005,113.247 0.004,169.871 0,2.159 -0.094,4.323 0.03,6.475 0.134,2.329 0.556,2.817 2.823,2.83 9.235,0.055 18.47,0.009 27.706,-0.013 1.164,-0.003 2.203,-0.276 2.239,-1.731 0.032,-1.333 -0.792,-1.922 -2.003,-2.091 -1.304,-0.182 -2.607,-0.402 -3.919,-0.507 -7.304,-0.586 -11.614,-4.398 -13.089,-11.608 -0.63,-3.077 -0.678,-6.202 -0.679,-9.318 -0.01,-51.585 0.001,-103.17 0.011,-154.755 0,-0.84 0.026,-1.68 0.067,-2.518 0.484,-9.754 6.476,-16.769 16.218,-17.514 14.189,-1.085 28.296,-0.228 41.745,5.157 15.56,6.231 25.822,17.798 32.699,32.73 2.361,5.126 4.044,10.5 5.765,15.857 0.514,1.598 1.126,2.818 3.099,2.889 2.62,0.094 3.534,-0.584 3.312,-3.269 -0.444,-5.374 -1.06,-10.734 -1.617,-16.098 -1.114,-10.731 -2.229,-21.461 -3.36,-32.189 -0.226,-2.145 -0.595,-4.277 -0.768,-6.425 -0.157,-1.949 -1.168,-2.737 -3.037,-2.736 -1.678,0.002 -3.356,-0.129 -5.034,-0.129 -46.417,-0.014 -92.835,-0.019 -139.253,-0.015 -0.953,0 -1.913,0.074 -2.855,0.215 -1.047,0.158 -1.816,0.686 -1.696,1.904 0.105,1.055 0.621,1.832 1.752,1.947 2.266,0.231 4.534,0.491 6.808,0.591 2.573,0.113 4.947,0.858 7.234,1.948 3.547,1.69 5.904,4.472 7.109,8.174 0.967,2.97 1.543,6.021 1.542,9.179 -0.014,51.945 -0.014,103.89 0.004,155.835 10e-4,2.426 -0.402,4.788 -0.97,7.108 -1.766,7.219 -7.145,11.933 -14.631,12.969 -2.137,0.296 -4.278,0.561 -6.416,0.848 -1.256,0.169 -2.512,0.484 -2.34,2.097 0.15,1.404 1.348,1.462 2.466,1.46 3.118,-0.004 6.237,-0.007 9.355,-0.009 6.837,-0.002 13.673,10e-4 20.51,-0.006 4.488,-0.004 4.521,-0.009 4.564,-4.672 C 0.011,82.296 -0.002,77.138 -0.001,71.979 0.002,47.986 0,23.993 0,0"
             style="fill:#ddc173;fill-opacity:1;fill-rule:nonzero;stroke:none"
             id="path76" />
        </g>
        <g
           id="g78"
           transform="translate(1311.7096,529.1649)">
          <path
             d="m 0,0 c 0.428,-7.42 -1.206,-14.729 -4.305,-21.737 -3.617,-8.178 -9.34,-14.397 -17.257,-18.636 -10.208,-5.466 -21.162,-8.251 -32.61,-9.274 -21.429,-1.915 -41.969,2.397 -62.159,9.04 -2.387,0.786 -4.755,1.651 -7.071,2.623 -3.732,1.567 -3.765,1.621 -3.51,5.578 0.255,3.949 0.605,7.893 0.964,11.834 0.892,9.793 1.811,19.583 2.725,29.374 0.078,0.835 0.143,1.677 0.313,2.495 0.206,0.989 0.655,1.844 1.848,1.86 1.275,0.018 1.974,-0.633 2.164,-1.911 0.42,-2.845 0.816,-5.696 1.337,-8.523 4.726,-25.683 25.93,-45.29 51.915,-48.197 4.47,-0.5 8.86,-0.485 13.229,0.46 7.493,1.622 13.382,5.736 17.769,11.962 6.05,8.586 8.191,18.228 7.588,28.616 -0.551,9.481 -4.22,17.587 -10.36,24.726 -5.834,6.783 -12.614,12.463 -19.904,17.582 -10.722,7.528 -22.376,13.464 -33.804,19.781 -5.264,2.909 -10.344,6.069 -14.891,10.017 -11.787,10.235 -19.617,22.825 -22.547,38.278 -0.423,2.233 -0.725,4.504 -0.877,6.771 -0.178,2.648 0.917,3.569 3.499,2.847 7.729,-2.159 15.49,-4.189 23.316,-5.959 1.783,-0.404 3.028,-1.365 3.88,-2.915 5.378,-9.782 13.684,-16.601 22.975,-22.297 6.33,-3.879 12.914,-7.343 19.394,-10.977 12.264,-6.876 24.11,-14.325 34.39,-24.06 10.476,-9.92 17.556,-21.74 20.766,-35.855 C -0.23,9.137 0.05,4.732 0,0"
             style="fill:#ddc173;fill-opacity:1;fill-rule:nonzero;stroke:none"
             id="path80" />
        </g>
        <g
           id="g82"
           transform="translate(1614.5444,795.5035)">
          <path
             d="m 0,0 c -0.416,-1.434 -1.779,-1.522 -2.791,-1.982 -5.862,-2.662 -12.14,-2.574 -18.366,-2.47 -9.126,0.153 -17.701,2.833 -26.06,6.246 -8.205,3.351 -16.269,7.026 -24.233,10.92 -6.993,3.419 -14.009,6.784 -21.283,9.585 -3.087,1.189 -3.215,1.598 -1.481,4.337 4.053,6.405 8.887,12.212 13.877,17.89 8.01,9.114 16.755,17.499 25.754,25.619 4.934,4.453 9.121,9.511 12.715,15.082 6.256,9.696 5.24,18.972 -2.146,27.347 -3.838,4.351 -8.425,7.815 -13.478,10.669 -5.545,3.132 -11.399,5.565 -17.326,7.85 -1.183,0.456 -2.623,0.522 -3.405,1.911 2.375,1.304 5.008,1.698 7.516,2.433 8.732,2.559 17.475,5.062 26,8.277 5.146,1.941 9.942,4.525 13.289,8.886 4.526,5.896 14.402,5.148 19.06,-0.259 4.878,-5.662 7.717,-12.151 7.152,-19.741 -0.651,-8.738 -2.083,-17.37 -4.269,-25.862 -1.47,-5.713 -4.744,-10.429 -8.449,-14.883 -1.687,-2.028 -3.423,-4.015 -5.126,-6.029 -0.555,-0.656 -1.08,-1.382 -0.506,-2.253 0.586,-0.892 1.436,-0.589 2.265,-0.365 2.552,0.69 5.144,1.112 7.795,1.201 6.481,0.22 11.653,-2.391 15.645,-7.359 C 5.266,73.171 7.391,68.763 8.465,63.875 8.596,63.278 8.733,62.664 8.241,62.192 7.567,61.546 6.923,61.99 6.306,62.357 c -3.004,1.787 -6.037,3.336 -9.705,3.384 -3.114,0.041 -5.619,-0.978 -7.655,-3.251 -1.92,-2.143 -3.725,-4.394 -5.711,-6.473 -7.026,-7.36 -15.427,-12.042 -25.697,-13.074 -6.101,-0.614 -11.929,0.51 -17.64,2.523 -4.1,1.446 -4.114,1.469 -7.017,-1.853 -1.341,-1.535 -2.605,-3.136 -3.894,-4.716 -0.819,-1.004 -0.713,-1.963 0.188,-2.862 0.255,-0.253 0.5,-0.517 0.764,-0.761 C -53.784,20.263 -35.533,8.685 -13.841,3.192 -9.902,2.195 -5.851,1.641 -1.849,0.895 -1.15,0.765 -0.419,0.737 0,0"
             style="fill:#ddc173;fill-opacity:1;fill-rule:nonzero;stroke:none"
             id="path84" />
        </g>
        <g
           id="g86"
           transform="translate(1295.7211,789.1069)">
          <path
             d="m 0,0 c -7.672,9.471 -15.222,19.041 -23.208,28.255 -9.926,11.454 -20.673,22 -32.984,30.923 -7.671,5.56 -15.044,11.521 -21.62,18.383 -2.569,2.68 -5.027,5.474 -7.437,8.301 -9.643,11.311 -14.723,24.518 -16.206,39.215 -0.312,3.1 -0.802,6.181 -1.12,9.28 -0.78,7.59 1.775,14.154 6.406,19.998 2.413,3.046 5.617,4.802 9.542,5.12 3.644,0.295 6.939,-0.443 9.416,-3.366 4.491,-5.299 10.349,-8.363 16.783,-10.632 9.151,-3.227 18.5,-5.786 27.793,-8.535 1.032,-0.305 2.116,-0.435 2.985,-1.218 -0.741,-1.312 -2.18,-1.379 -3.362,-1.835 -5.925,-2.284 -11.776,-4.718 -17.32,-7.845 -4.733,-2.67 -9.02,-5.919 -12.749,-9.866 -3.523,-3.729 -6.084,-7.967 -6.789,-13.191 -0.675,-4.991 0.636,-9.529 3.149,-13.712 3.408,-5.673 7.495,-10.839 12.396,-15.329 3.094,-2.834 6.1,-5.769 9.259,-8.53 C -30.521,52.699 -19.877,36.944 -9.99,20.585 -6.154,14.239 -2.495,7.8 0.663,1.087 0.808,0.778 0.787,0.391 0.844,0.041 0.563,0.027 0.281,0.014 0,0"
             style="fill:#ddc173;fill-opacity:1;fill-rule:nonzero;stroke:none"
             id="path88" />
        </g>
        <g
           id="g90"
           transform="translate(1386.7626,293.5395)">
          <path
             d="m 0,0 c 1.246,0.273 1.707,-0.396 2.17,-0.88 7.814,-8.168 17.629,-12.725 28.381,-15.353 8.141,-1.989 16.387,-1.979 24.552,0.206 1.156,0.309 2.281,0.738 3.445,1.009 2.499,0.581 3.082,0.159 3.002,-2.366 -0.065,-2.033 -0.163,-4.097 -0.574,-6.079 -0.6,-2.887 0.228,-4.931 2.434,-6.935 6.885,-6.254 11.751,-13.857 14.292,-22.869 2.754,-9.773 2.801,-19.455 0.423,-29.433 -3.379,-14.181 -9.259,-26.882 -18.995,-37.788 -3.992,-4.472 -7.787,-9.123 -11.578,-13.77 -2.653,-3.251 -5.048,-6.688 -6.969,-10.451 -2.495,-4.887 -3.727,-10.015 -3.139,-15.453 -1.169,-0.338 -1.554,0.348 -1.821,0.987 -1.739,4.163 -2.676,8.473 -1.878,12.987 0.921,5.203 2.339,10.255 4.538,15.097 3.766,8.293 7.996,16.354 12.014,24.521 2.489,5.058 4.621,10.251 6.503,15.568 3.625,10.243 2.92,20.252 -1.279,30.132 -4.18,9.834 -10.779,17.784 -19.106,24.362 -5.934,4.688 -12.491,8.487 -18.588,12.947 C 12.263,-19.491 7.248,-14.886 3.56,-9.007 1.86,-6.297 0.165,-3.529 0,0"
             style="fill:#ddc173;fill-opacity:1;fill-rule:nonzero;stroke:none"
             id="path92" />
        </g>
        <g
           id="g94"
           transform="translate(1620.9152,736.3196)">
          <path
             d="m 0,0 c 1.687,1.562 3.702,1.886 5.584,2.268 2.617,0.531 5.016,1.583 7.435,2.608 1.102,0.467 2.107,1.133 2.965,1.998 1.167,1.177 1.877,2.529 1.414,4.209 -0.427,1.553 -1.872,1.75 -3.141,1.999 -11.927,2.342 -23.951,3.383 -36.108,2.624 -10.192,-0.637 -20.203,-2.131 -30.013,-5.164 -5.458,-1.687 -11.082,-2.958 -16.982,-1.853 -5.478,1.026 -9.891,3.562 -13.077,8.089 -1.859,2.641 -3.56,5.403 -5.182,8.198 -6.173,10.631 -14.68,18.853 -25.378,24.85 -0.729,0.409 -1.481,0.793 -2.155,1.283 -1.115,0.809 -1.445,1.885 -0.768,3.145 1.756,3.271 3.465,6.57 5.321,9.784 1.083,1.874 1.902,2.116 3.864,1.167 2.909,-1.406 5.766,-2.929 8.59,-4.502 4.441,-2.473 9.007,-4.49 14.219,-4.49 0.733,0 1.491,-0.012 1.886,-0.746 0.503,-0.937 -0.151,-1.61 -0.722,-2.195 -1.361,-1.396 -2.93,-2.471 -4.921,-2.766 -1.185,-0.175 -2.385,-0.277 -3.556,-0.519 -1.326,-0.274 -1.741,-1.245 -0.989,-2.352 0.394,-0.579 0.996,-1.022 1.526,-1.503 7.018,-6.374 14.412,-12.292 22.003,-17.96 4.254,-3.176 8.862,-5.63 14.194,-6.623 3.243,-0.604 6.146,-0.239 8.925,1.571 2.507,1.635 5.063,3.207 7.672,4.672 12.691,7.129 26.325,10.757 40.888,10.651 5.583,-0.041 10.904,-1.366 15.822,-4.141 2.785,-1.572 4.992,-3.648 6.545,-6.478 2.368,-4.314 4.592,-8.653 5.665,-13.527 C 32.91,8.013 30.513,3.085 24.617,0.62 23.626,0.205 22.603,-0.164 21.563,-0.422 16.399,-1.703 6.128,-1.515 0,0"
             style="fill:#ddc173;fill-opacity:1;fill-rule:nonzero;stroke:none"
             id="path96" />
        </g>
        <g
           id="g98"
           transform="translate(1676.6525,676.2191)">
          <path
             d="m 0,0 c -8.312,-2.243 -16.641,-1.828 -24.921,-0.081 -6.607,1.394 -12.163,4.915 -17.441,8.94 -0.666,0.508 -1.275,1.101 -1.977,1.55 -1.088,0.696 -1.983,0.632 -2.568,-0.743 -0.547,-1.288 -0.501,-3.001 -1.971,-3.689 -1.579,-0.739 -3.311,-0.235 -4.961,-0.103 -6.7,0.54 -13.312,1.509 -19.686,3.821 -7.21,2.617 -13.082,6.724 -17.183,13.423 -4.84,7.904 -11.789,13.533 -20.434,16.873 -2.829,1.093 -4.978,2.666 -6.587,5.2 -1.54,2.425 -3.36,4.672 -4.879,7.108 -1.045,1.679 -0.554,2.523 1.437,2.357 5.014,-0.417 10.033,-0.889 15.011,-1.604 14.641,-2.101 28.871,-5.709 42.385,-11.881 12.631,-5.768 23.659,-13.618 32.24,-24.65 C -25.298,8.502 -17.23,3.584 -7.257,1.708 -4.817,1.25 -2.418,0.575 0,0"
             style="fill:#ddc173;fill-opacity:1;fill-rule:nonzero;stroke:none"
             id="path100" />
        </g>
        <g
           id="g102"
           transform="translate(1409.3633,296.7827)">
          <path
             d="m 0,0 c -2.035,-0.497 -3.958,0.357 -5.841,0.917 -9.503,2.826 -16.531,8.98 -22.141,16.915 -4.953,7.004 -7.444,14.914 -8.645,23.357 -1.894,13.313 0.922,25.981 4.846,38.532 1.251,3.999 2.547,7.983 3.816,11.977 0.887,2.794 1.103,5.565 0.352,8.484 -0.77,2.994 0.868,4.383 3.797,3.239 2.995,-1.171 5.737,-2.886 8.901,-3.775 2.091,-0.587 2.723,-3.263 1.63,-5.894 -1.123,-2.706 -1.424,-5.523 -1.86,-8.373 C -17.76,68.284 -11.454,54.095 -0.852,41.367 3.901,35.66 8.761,30.01 14.484,25.2 c 0.591,-0.497 1.645,-0.978 1.075,-1.968 -0.454,-0.789 -1.482,-0.668 -2.315,-0.66 -8.97,0.081 -15.862,3.999 -20.868,11.362 -0.606,0.89 -1.125,1.839 -1.719,2.738 -0.34,0.515 -0.805,0.898 -1.488,0.744 -0.744,-0.169 -0.799,-0.845 -0.884,-1.406 -0.473,-3.1 -0.478,-6.226 -0.175,-9.333 C -10.988,17.453 -7.802,9.227 -1.124,2.568 -0.462,1.908 0.39,1.299 0,0"
             style="fill:#ddc173;fill-opacity:1;fill-rule:nonzero;stroke:none"
             id="path104" />
        </g>
        <g
           id="g106"
           transform="translate(1463.7197,84.5273)">
          <path
             d="m 0,0 c -1.377,0.366 -1.777,1.3 -2.298,2.062 -7.325,10.705 -12.725,22.226 -14.82,35.141 -0.655,4.042 -0.778,8.112 -0.695,12.195 0.027,1.319 0.089,2.638 0.093,3.957 0.002,0.683 0.205,1.482 -0.646,1.867 -0.898,0.406 -1.353,-0.306 -1.74,-0.85 -3.652,-5.146 -5.733,-10.796 -4.995,-17.186 0.443,-3.833 1.709,-7.46 3.453,-10.914 1.167,-2.311 2.277,-4.651 3.251,-7.049 -12.496,13.193 -13.977,27.885 -7.545,43.05 2.742,6.467 6.727,12.145 11.478,17.3 3.413,3.703 6.869,7.363 9.788,11.498 3.853,5.458 6.52,11.42 8.09,17.898 0.225,0.928 0.472,1.87 0.866,2.735 0.744,1.629 2.171,3.119 0.666,5.059 -0.107,0.138 0.144,0.642 0.338,0.892 0.096,0.125 0.573,0.159 0.642,0.064 0.194,-0.267 0.429,-0.665 0.36,-0.938 C 4.803,110.886 5.618,104.785 4.637,98.842 3.662,92.93 2.957,86.972 1.907,81.075 1.237,77.309 0.174,73.615 -0.324,69.807 -0.482,68.601 -0.833,67.349 0.595,66.69 c 1.185,-0.546 2.059,0.197 2.859,0.954 6.553,6.192 11.902,13.126 13.901,22.19 0.797,3.613 0.454,7.131 -0.343,10.68 -0.189,0.842 -1.099,2.026 -0.017,2.606 1.18,0.632 1.9,-0.689 2.585,-1.423 C 24.704,96.21 25.816,89.751 24,82.649 23.615,81.145 23.162,79.632 22.521,78.223 18.955,70.382 15.507,62.493 10.054,55.666 5.412,49.854 1.301,43.614 -2.457,37.223 -7.077,29.368 -7.331,20.821 -4.359,12.245 -3.381,9.422 -2.057,6.72 -0.888,3.964 -0.379,2.764 0.215,1.585 0,0"
             style="fill:#ddc173;fill-opacity:1;fill-rule:nonzero;stroke:none"
             id="path108" />
        </g>
        <g
           id="g110"
           transform="translate(1600.099,266.0493)">
          <path
             d="m 0,0 c -0.079,-0.64 0.199,-1.36 -0.465,-1.676 -0.866,-0.413 -1.28,0.33 -1.704,0.883 -1.385,1.808 -2.822,3.558 -4.587,5.03 -0.63,0.526 -1.125,1.541 -2.034,0.928 -0.779,-0.527 -0.372,-1.515 -0.189,-2.324 0.957,-4.237 1.294,-8.492 0.517,-12.808 -0.602,-3.347 -1.748,-6.462 -3.651,-9.287 -0.34,-0.504 -0.758,-0.965 -1.449,-0.822 -0.754,0.156 -0.763,0.822 -0.839,1.407 -0.306,2.375 -0.435,4.787 -0.937,7.119 -1.248,5.812 -3.956,11.028 -7.072,16.021 -3.559,5.7 -7.687,11.001 -11.828,16.282 -13.162,16.786 -23.173,35.456 -32.648,54.451 -0.319,0.64 -0.721,1.246 -0.545,2.025 0.283,1.251 1.794,1.604 2.81,0.5 1.049,-1.141 1.928,-2.446 2.814,-3.726 6.004,-8.687 12.307,-17.125 19.765,-24.654 7.363,-7.434 15.749,-13.239 25.715,-16.613 1.647,-0.557 3.019,-1.471 4.009,-2.89 C -6.353,21.3 -1.948,12.081 -0.245,1.705 -0.148,1.114 -0.074,0.52 0,0"
             style="fill:#ddc173;fill-opacity:1;fill-rule:nonzero;stroke:none"
             id="path112" />
        </g>
        <g
           id="g114"
           transform="translate(1590.7505,818.2042)">
          <path
             d="m 0,0 c -0.328,1.809 1.044,2.628 2,3.599 8.484,8.608 18.912,12.775 30.869,13.379 1.315,0.066 2.636,10e-4 3.954,0.022 1.249,0.019 2.579,-0.152 1.559,1.915 -0.585,1.186 0.615,1.375 1.414,1.343 2.511,-0.1 5.036,-0.17 7.519,-0.514 4.27,-0.591 8.473,-1.565 12.596,-2.836 1.137,-0.35 2.246,-0.837 3.308,-1.378 4.662,-2.376 5.558,-5.461 2.752,-9.965 -1.518,-2.435 -3.329,-4.686 -4.959,-7.054 -2.717,-3.948 -2.527,-6.714 0.628,-10.357 2.007,-2.318 4.477,-3.945 7.338,-5.011 0.784,-0.292 1.583,-0.572 2.314,-0.972 1.001,-0.547 0.892,-1.296 0.173,-2.033 -1.219,-1.248 -2.681,-0.921 -4.03,-0.429 -4.596,1.676 -8.52,4.321 -11.494,8.282 -1.67,2.225 -2.866,4.692 -3.881,7.262 -0.263,0.668 -0.456,1.372 -0.79,2.001 -0.626,1.182 -1.394,1.223 -2.085,0.174 -1.961,-2.977 -1.966,-2.995 -5.234,-2.204 -8.732,2.113 -17.542,3.86 -26.456,4.927 C 12.035,0.804 6.506,1.125 1.038,-0.105 0.722,-0.176 0.359,-0.041 0,0"
             style="fill:#ddc173;fill-opacity:1;fill-rule:nonzero;stroke:none"
             id="path116" />
        </g>
        <g
           id="g118"
           transform="translate(1391.3276,437.8393)">
          <path
             d="m 0,0 c 4.398,-0.307 8.233,-1.232 11.521,-3.619 1.782,-1.293 3.119,-1.227 4.734,0.241 3.341,3.035 7.434,3.756 11.758,3.218 5.731,-0.714 11.294,-2.133 16.555,-4.575 3.353,-1.556 3.526,-3.398 0.657,-5.895 -4.192,-3.65 -9.093,-6.201 -13.856,-8.958 -1.773,-1.026 -3.666,-0.884 -5.551,-0.145 -1.894,0.744 -3.84,1.299 -5.833,1.763 -3.475,0.809 -6.879,0.786 -10.307,-0.146 -1.732,-0.472 -3.479,-0.894 -5.231,-1.288 -2.036,-0.459 -3.995,-0.367 -5.953,0.558 -3.246,1.535 -6.591,2.861 -9.845,4.379 -3.192,1.487 -4.291,3.856 -3.767,7.701 0.383,2.803 1.991,4.502 5.204,5.129 C -6.509,-0.973 -3.067,-0.499 0,0"
             style="fill:#ddc173;fill-opacity:1;fill-rule:nonzero;stroke:none"
             id="path120" />
        </g>
        <g
           id="g122"
           transform="translate(1492.4507,640.1749)">
          <path
             d="m 0,0 c -6.136,-0.193 -12.182,0.791 -18.252,1.466 -5.363,0.596 -10.714,1.142 -16.12,0.612 -0.873,-0.085 -2.008,-0.549 -2.588,0.582 -0.605,1.179 0.235,2.037 0.879,2.895 2.996,3.991 7.09,6.436 11.737,7.898 3.76,1.183 7.606,2.143 11.467,2.941 4.355,0.9 8.627,1.974 12.64,3.93 0.215,0.105 0.413,0.278 0.638,0.32 0.777,0.147 1.532,0.9 2.35,0.219 0.83,-0.692 0.429,-1.544 0.13,-2.312 -0.606,-1.558 -1.272,-3.093 -1.915,-4.637 -0.995,-2.391 -0.757,-2.887 1.868,-3.275 6.788,-1.004 13.1,0.263 18.821,4.141 1.482,1.004 2.851,2.23 4.74,2.405 1.983,0.183 2.678,-0.678 1.951,-2.554 C 26.971,11.084 24.719,8.157 21.684,5.875 16.969,2.328 11.677,0.272 5.752,0.013 3.838,-0.07 1.917,0 0,0"
             style="fill:#ddc173;fill-opacity:1;fill-rule:nonzero;stroke:none"
             id="path124" />
        </g>
        <g
           id="g126"
           transform="translate(1500.1968,120.5142)">
          <path
             d="m 0,0 c 5.801,-4.718 7.457,-14.047 4.351,-21.909 -2.895,-7.325 -10.153,-13.72 -20.635,-13.395 -11.644,0.362 -18.179,8.591 -20.167,16.03 -2.196,8.214 0.916,17.45 7.501,21.728 -0.096,-1.806 -1.083,-3.227 -1.553,-4.798 -1.891,-6.328 0.035,-12.993 5.098,-17.208 4.971,-4.14 12.059,-4.881 17.866,-1.867 5.613,2.913 9.009,9.336 8.344,15.873 C 0.636,-3.889 0.33,-2.245 0,0"
             style="fill:#ddc173;fill-opacity:1;fill-rule:nonzero;stroke:none"
             id="path128" />
        </g>
        <g
           id="g130"
           transform="translate(1500.1075,196.3238)">
          <path
             d="m 0,0 c 0.855,0.208 1.223,-0.344 1.621,-0.729 5.49,-5.318 9.832,-11.443 12.862,-18.474 1.055,-2.449 1.527,-5.011 1.592,-7.692 0.125,-5.15 -2.044,-9.011 -6.303,-11.767 -1.105,-0.715 -2.247,-1.388 -3.426,-1.972 -7.133,-3.534 -13.806,-7.72 -19.423,-13.449 -0.534,-0.545 -1.052,-1.39 -2.323,-0.934 0.843,5.345 3.309,9.844 7.088,13.677 4.358,4.419 7.699,9.463 9.658,15.392 2.341,7.082 2.217,14.133 -0.093,21.197 C 0.745,-3.196 -0.066,-1.69 0,0"
             style="fill:#ddc173;fill-opacity:1;fill-rule:nonzero;stroke:none"
             id="path132" />
        </g>
        <g
           id="g134"
           transform="translate(1406.995,163.8692)">
          <path
             d="m 0,0 c -1.894,0.789 -1.904,2.024 -2.182,2.996 -5.619,19.618 2.706,37.17 16.44,46.518 1.029,0.7 2.109,2.09 3.426,1.43 C 19.24,50.163 18.603,48.369 18.54,47.02 18.195,39.705 16.236,32.907 12.117,26.746 8.992,22.071 5.97,17.322 3.62,12.177 1.887,8.381 0.497,4.491 0,0"
             style="fill:#ddc173;fill-opacity:1;fill-rule:nonzero;stroke:none"
             id="path136" />
        </g>
        <g
           id="g138"
           transform="translate(1446.4811,314.5647)">
          <path
             d="m 0,0 c 4.085,-5.086 3.772,-10.416 -0.948,-14.54 -7.242,-6.327 -16.071,-4.124 -20.816,1.996 -0.489,0.63 -1.264,1.336 -0.717,2.216 0.533,0.858 1.497,0.472 2.291,0.38 2.252,-0.26 4.468,-0.578 6.772,-0.216 4.66,0.733 8.236,2.97 10.727,6.988 C -1.959,-1.996 -1.558,-0.492 0,0"
             style="fill:#ddc173;fill-opacity:1;fill-rule:nonzero;stroke:none"
             id="path140" />
        </g>
        <g
           id="g142"
           transform="translate(1483.0081,134.205)">
          <path
             d="m 0,0 c 1.832,-4.267 4.067,-7.726 6.333,-11.179 1.475,-2.249 0.605,-7.78 -1.411,-9.767 -1.219,-1.2 -1.873,-0.146 -2.337,0.924 C 0.434,-15.058 -1.1,-9.933 -1.134,-4.473 -1.142,-3.114 -1.016,-1.685 0,0"
             style="fill:#ddc173;fill-opacity:1;fill-rule:nonzero;stroke:none"
             id="path144" />
        </g>
        <g
           id="g146"
           transform="translate(1295.7211,789.1069)">
          <path
             d="M 0,0 C 0.281,0.014 0.563,0.027 0.844,0.041 1.607,-0.2 1.553,-1.24 1.357,-1.266 0.578,-1.371 0.38,-0.526 0,0"
             style="fill:#ddc173;fill-opacity:1;fill-rule:nonzero;stroke:none"
             id="path148" />
        </g>
        <g
           id="g150"
           transform="translate(1340.2848,710.8963)">
          <path
             d="m 0,0 c -0.096,-0.096 -0.176,-0.176 -0.256,-0.256 -0.08,0.16 -0.187,0.314 -0.225,0.483 -0.013,0.059 0.145,0.157 0.225,0.237 C -0.17,0.307 -0.083,0.151 0,0"
             style="fill:#ddc173;fill-opacity:1;fill-rule:nonzero;stroke:none"
             id="path152" />
        </g>
      </g>
    </g>
  </g>
</svg>
